<svg width="138" height="150" viewBox="0 0 138 150" fill="none" xmlns="http://www.w3.org/2000/svg">
<g clip-path="url(#clip0_56_5125)">
<path d="M87.5873 56.9633C88.3556 57.7359 89.3346 58.2621 90.4004 58.4751C91.4661 58.6883 92.5708 58.5789 93.5748 58.1609C94.5788 57.7428 95.4369 57.0348 96.0406 56.1265C96.6442 55.218 96.9665 54.1501 96.9665 53.0575C96.9665 51.9652 96.6442 50.8971 96.0406 49.9887C95.4369 49.0804 94.5788 48.3724 93.5748 47.9542C92.5708 47.5362 91.4661 47.4268 90.4004 47.64C89.3346 47.8531 88.3556 48.3793 87.5873 49.1519C86.5569 50.1877 85.9781 51.5927 85.9781 53.0575C85.9781 54.5226 86.5569 55.9275 87.5873 56.9633Z" fill="#FF5678"/>
<path d="M66.1585 67.3943L32.1205 101.616C31.397 102.343 30.823 103.206 30.4314 104.157C30.0399 105.107 29.8382 106.125 29.8382 107.154C29.8382 108.183 30.0395 109.201 30.4309 110.151C30.8224 111.102 31.3963 111.966 32.1198 112.693C32.8431 113.42 33.7019 113.997 34.6472 114.391C35.5923 114.785 36.6054 114.987 37.6286 114.988C38.6518 114.988 39.6649 114.785 40.6102 114.391C41.5555 113.998 42.4144 113.421 43.1378 112.694L57.5244 98.2297C58.1058 97.7943 58.8233 97.5836 59.5464 97.6361C60.2694 97.6882 60.9494 98.0004 61.4628 98.5148C62.0359 99.0881 62.3609 99.8655 62.3671 100.678C62.3731 101.491 62.0597 102.274 61.4949 102.855L50.9638 113.443C49.5027 114.912 48.6821 116.904 48.6821 118.982C48.6824 121.059 49.5034 123.051 50.9644 124.52C52.4257 125.989 54.4074 126.814 56.4737 126.814C58.5401 126.814 60.5216 125.989 61.9827 124.519L91.3372 95.0057C91.6186 94.7227 91.9525 94.4985 92.3202 94.3454C92.6877 94.1922 93.0817 94.1135 93.4796 94.1135C93.8775 94.1135 94.2713 94.1922 94.6391 94.3454C95.0066 94.4985 95.3407 94.7227 95.622 95.0057C95.9033 95.2885 96.1264 95.6244 96.2787 95.9938C96.4311 96.3635 96.5093 96.7596 96.5093 97.1597C96.5093 97.5597 96.4311 97.9556 96.2787 98.3253C96.1264 98.6949 95.9033 99.0308 95.622 99.3136L93.8093 101.128C92.3482 102.597 91.5276 104.59 91.5278 106.667C91.5278 108.745 92.3489 110.737 93.8101 112.206C95.2712 113.674 97.2529 114.5 99.3194 114.499C101.386 114.499 103.367 113.674 104.828 112.205L117.14 99.827C118.601 98.3582 119.422 96.3658 119.422 94.2885C119.422 92.2111 118.602 90.2187 117.141 88.7497C115.68 87.2805 113.698 86.4552 111.632 86.455C109.565 86.455 107.584 87.2801 106.123 88.7489L104.336 90.5513C103.768 91.1225 102.997 91.4434 102.193 91.4434C101.389 91.4431 100.618 91.122 100.05 90.5505C99.4819 89.9791 99.163 89.2041 99.163 88.3961C99.1632 87.5879 99.4826 86.8131 100.051 86.2417L118.454 67.749C119.915 66.2801 120.736 64.2876 120.736 62.2103C120.735 60.1327 119.914 58.1405 118.453 56.6717C116.992 55.2028 115.01 54.3777 112.944 54.3779C110.878 54.3781 108.896 55.2034 107.435 56.6724L70.2089 94.0914C69.6304 94.6592 68.8524 94.9747 68.044 94.9689C67.2356 94.9632 66.4621 94.6367 65.8918 94.0604C65.3801 93.5436 65.0703 92.8591 65.0188 92.1317C64.9672 91.4044 65.1775 90.6824 65.6111 90.098L89.2898 66.295C90.7195 64.8194 91.5135 62.8373 91.5 60.7772C91.4866 58.7174 90.6668 56.7458 89.218 55.2892C87.7691 53.8326 85.8081 53.0084 83.7592 52.9949C81.7103 52.9812 79.7386 53.7796 78.271 55.2169L73.7913 59.7207C73.2155 60.0619 72.5433 60.2016 71.8802 60.1177C71.217 60.0341 70.6001 59.7318 70.1261 59.2582C69.5528 58.6849 69.2278 57.9075 69.2218 57.0947C69.2156 56.2818 69.5292 55.4995 70.0938 54.9178L87.7563 37.1591C89.1859 35.6835 89.9799 33.7011 89.9665 31.6413C89.953 29.5813 89.133 27.6096 87.6844 26.153C86.2355 24.6965 84.2743 23.8722 82.2257 23.8587C80.1768 23.8453 78.2051 24.6436 76.7374 26.0809L47.3766 55.5947C46.8082 56.166 46.0375 56.4869 45.2338 56.4867C44.4299 56.4865 43.6594 56.1654 43.091 55.594C42.5228 55.0224 42.2037 54.2474 42.2039 53.4395C42.2041 52.6315 42.5235 51.8565 43.0918 51.2853L51.3379 43.0009C52.0832 42.2787 52.6777 41.4145 53.0869 40.4585C53.4961 39.5027 53.7118 38.4744 53.7212 37.4337C53.7308 36.3932 53.5338 35.3611 53.1421 34.3978C52.7504 33.4345 52.1718 32.5594 51.4398 31.8235C50.7079 31.0877 49.8375 30.5058 48.8794 30.112C47.9212 29.7182 46.8947 29.5203 45.8595 29.5299C44.8246 29.5393 43.8018 29.7562 42.851 30.1676C41.9003 30.579 41.0406 31.1766 40.3223 31.926L21.5816 50.7657C20.1205 52.2345 19.2995 54.2269 19.2993 56.3042C19.2993 57.3327 19.5006 58.3514 19.8921 59.3018C20.2836 60.2521 20.8575 61.1157 21.581 61.843C22.3042 62.5705 23.1631 63.1474 24.1084 63.541C25.0535 63.9349 26.0666 64.1375 27.0898 64.1377C29.156 64.1377 31.1377 63.3126 32.599 61.8438L34.3826 60.0506C34.9508 59.4792 35.7215 59.1581 36.5252 59.1579C37.3289 59.1577 38.0999 59.4785 38.6682 60.0499C39.2366 60.6211 39.556 61.3961 39.5562 62.2041C39.5562 63.012 39.2371 63.7871 38.6689 64.3584L20.2658 82.8514C18.8362 84.327 18.0421 86.3093 18.0556 88.3691C18.0691 90.429 18.8888 92.4006 20.3377 93.8572C21.7865 95.3138 23.7475 96.138 25.7964 96.1517C27.8453 96.1652 29.817 95.3668 31.2847 93.9295L61.3783 63.6786C61.957 63.1109 62.735 62.7958 63.5436 62.8018C64.352 62.808 65.1253 63.1346 65.6954 63.7109C66.1667 64.1871 66.4679 64.8068 66.5515 65.4734C66.6354 66.1397 66.4972 66.8153 66.1585 67.3943Z" fill="#FF5678"/>
</g>
<defs>
<clipPath id="clip0_56_5125">
<rect width="137.283" height="149.352" fill="white" transform="translate(-7.62939e-06 0.323853)"/>
</clipPath>
</defs>
</svg>
